<?xml version="1.0" standalone="no"?>
<!DOCTYPE svg PUBLIC "-//W3C//DTD SVG 20010904//EN"
 "http://www.w3.org/TR/2001/REC-SVG-20010904/DTD/svg10.dtd">
<svg version="1.0" xmlns="http://www.w3.org/2000/svg"
 width="205.000000pt" height="205.000000pt" viewBox="0 0 205.000000 205.000000"
 preserveAspectRatio="xMidYMid meet">
<metadata>
Created by potrace 1.14, written by Peter Selinger 2001-2017
</metadata>
<g transform="translate(0.000000,205.000000) scale(0.100000,-0.100000)"
fill="#000000" stroke="none">
<path d="M1295 1288 c-13 -10 -28 -31 -33 -47 -8 -24 -7 -33 8 -49 15 -16 26
-18 65 -12 44 7 63 20 63 44 0 5 6 12 13 17 9 5 3 15 -21 35 -39 34 -64 37
-95 12z m17 -23 c0 -5 -5 -11 -11 -13 -6 -2 -11 4 -11 13 0 9 5 15 11 13 6 -2
11 -8 11 -13z"/>
<path d="M819 1238 c-9 -7 -23 -26 -33 -41 -17 -28 -17 -29 3 -22 15 4 21 2
21 -9 0 -20 15 -28 61 -32 29 -3 41 1 47 14 13 26 9 37 -21 71 -29 33 -54 39
-78 19z m66 -18 c3 -5 -3 -10 -15 -10 -12 0 -18 5 -15 10 3 6 10 10 15 10 5 0
12 -4 15 -10z m-25 -32 c0 -9 4 -8 10 2 8 13 10 12 10 -2 0 -22 -9 -22 -34 -3
-17 13 -18 15 -3 15 9 0 17 -6 17 -12z"/>
<path d="M1155 980 c9 -14 -38 -30 -86 -30 -26 0 -42 -5 -45 -15 -4 -8 -10
-12 -15 -9 -17 10 -9 -36 9 -53 9 -10 17 -24 18 -30 2 -25 4 -28 32 -40 54
-23 72 -25 78 -10 3 9 17 18 30 21 23 6 29 16 50 71 11 32 4 69 -18 88 -21 18
-63 24 -53 7z"/>
<path d="M383 897 c-22 -36 -37 -97 -24 -97 10 0 44 78 45 108 1 12 1 22 0 22
-1 0 -11 -15 -21 -33z"/>
<path d="M1088 732 c-42 -16 -50 -32 -15 -32 18 0 19 -2 7 -10 -11 -7 -1 -9
32 -8 25 1 45 5 42 9 -2 4 15 9 38 13 30 5 38 10 30 18 -20 20 -94 25 -134 10z"/>
</g>
</svg>
